# xmcd CD database file
#
# Track frame offsets:
#	150
#	15567
#	38802
#
# Disc length: 952 seconds
#
# Revision: 0
# Processed by: cddbd v1.5PL3 Copyright (c) Steve Scherf et al.
# Submitted via: CDex 1.50beta10
#
DISCID=1803b603
DTITLE=遊佐未森 - 野生のチューリップ
DYEAR=1995
DGENRE=JPop
TTITLE0=野生のチューリップ
TTITLE1=夏のてのひら
TTITLE2=恋かしら[Amnesia Mix]
EXTD=YEAR: 1995
EXTT0=
EXTT1=
EXTT2=
PLAYORDER=
